<mxfile host="app.diagrams.net" agent="Mozilla/5.0 (Windows NT 10.0; Win64; x64) AppleWebKit/537.36 (KHTML, like Gecko) Chrome/137.0.0.0 Safari/537.36" version="28.0.0">
  <diagram name="Page-1" id="FfKv59vx_b3wj6fhEl9B">
    <mxGraphModel dx="1042" dy="692" grid="1" gridSize="10" guides="1" tooltips="1" connect="1" arrows="1" fold="1" page="1" pageScale="1" pageWidth="827" pageHeight="1169" math="0" shadow="0">
      <root>
        <mxCell id="mf-ZOhoVI1zs9ZyyKpqo-0" />
        <mxCell id="mf-ZOhoVI1zs9ZyyKpqo-1" parent="mf-ZOhoVI1zs9ZyyKpqo-0" />
      </root>
    </mxGraphModel>
  </diagram>
</mxfile>
